HIERARCHY
ROOT root
{
	OFFSET 0.000000 0.000000 0.000000
	CHANNELS 6 Xposition Yposition Zposition Zrotation Yrotation Xrotation
	JOINT lhip
	{
		OFFSET 0.058581 -0.082280 -0.017664
		CHANNELS 3 Zrotation Yrotation Xrotation
		JOINT lknee
		{
			OFFSET 0.043451 -0.386469 0.008037
			CHANNELS 3 Zrotation Yrotation Xrotation
			JOINT lankle
			{
				OFFSET -0.014790 -0.426874 -0.037428
				CHANNELS 3 Zrotation Yrotation Xrotation
				JOINT ltoe
				{
					OFFSET 0.041054 -0.060286 0.122042
					CHANNELS 3 Zrotation Yrotation Xrotation
					End Site
					{
						OFFSET 0.000000 0.000000 0.000000
					}
				}
			}
		}
	}
	JOINT rhip
	{
		OFFSET -0.060310 -0.090513 -0.013543
		CHANNELS 3 Zrotation Yrotation Xrotation
		JOINT rknee
		{
			OFFSET -0.043257 -0.383688 -0.004843
			CHANNELS 3 Zrotation Yrotation Xrotation
			JOINT rankle
			{
				OFFSET 0.019056 -0.420046 -0.034562
				CHANNELS 3 Zrotation Yrotation Xrotation
				JOINT rtoe
				{
					OFFSET -0.034840 -0.062106 0.130323
					CHANNELS 3 Zrotation Yrotation Xrotation
					End Site
					{
						OFFSET 0.000000 0.000000 0.000000
					}
				}
			}
		}
	}
	JOINT lowerback
	{
		OFFSET 0.004439 0.124404 -0.038385
		CHANNELS 3 Zrotation Yrotation Xrotation
		JOINT upperback
		{
			OFFSET 0.004488 0.137956 0.026820
			CHANNELS 3 Zrotation Yrotation Xrotation
			JOINT chest
			{
				OFFSET -0.002265 0.056032 0.002855
				CHANNELS 3 Zrotation Yrotation Xrotation
				JOINT lowerneck
				{
					OFFSET -0.013390 0.211636 -0.033468
					CHANNELS 3 Zrotation Yrotation Xrotation
					JOINT upperneck
					{
						OFFSET 0.010113 0.088937 0.050410
						CHANNELS 3 Zrotation Yrotation Xrotation
						End Site
						{
							OFFSET 0.000000 0.000000 0.000000
						}
					}
				}
				JOINT lclavicle
				{
					OFFSET 0.071702 0.114000 -0.018898
					CHANNELS 3 Zrotation Yrotation Xrotation
					JOINT lshoulder
					{
						OFFSET 0.122921 0.045205 -0.019046
						CHANNELS 3 Zrotation Yrotation Xrotation
						JOINT lelbow
						{
							OFFSET 0.255332 -0.015649 -0.022946
							CHANNELS 3 Zrotation Yrotation Xrotation
							JOINT lwrist
							{
								OFFSET 0.265709 0.012698 -0.007375
								CHANNELS 3 Zrotation Yrotation Xrotation
								End Site
								{
									OFFSET 0.000000 0.000000 0.000000
								}
							}
						}
					}
				}
				JOINT rclavicle
				{
					OFFSET -0.082954 0.112472 -0.023707
					CHANNELS 3 Zrotation Yrotation Xrotation
					JOINT rshoulder
					{
						OFFSET -0.113228 0.046853 -0.008472
						CHANNELS 3 Zrotation Yrotation Xrotation
						JOINT relbow
						{
							OFFSET -0.260127 -0.014369 -0.031269
							CHANNELS 3 Zrotation Yrotation Xrotation
							JOINT rwrist
							{
								OFFSET -0.269108 0.006794 -0.006027
								CHANNELS 3 Zrotation Yrotation Xrotation
								End Site
								{
									OFFSET 0.000000 0.000000 0.000000
								}
							}
						}
					}
				}
			}
		}
	}
}
MOTION
Frames: 10
Frame Time: 0.033333
-0.467713 3.015587 0.980836 28.264926 1.211396 86.505717 0.796745 4.737417 8.251342 -4.399898 -0.197726 -4.470970 4.237857 12.504256 -12.276509 0.000000 -0.000000 0.000000 2.159862 -3.132453 1.345178 2.603799 -3.182095 7.397286 0.249805 -7.226418 -15.005933 0.000000 -0.000000 0.000000 0.465001 -0.832947 3.613594 0.467135 -3.507127 6.488041 0.679931 -2.073882 -1.096440 1.313718 2.454140 5.284111 2.277841 4.841024 11.590359 -28.720994 -2.714459 6.984110 -60.114857 -7.391463 8.805679 12.377931 -25.993465 -2.763453 -1.630098 -5.982319 -6.356444 23.426747 5.668278 7.045152 59.764255 6.393426 12.843734 -13.035981 25.088561 -4.855596 5.739381 6.613976 -10.455302 
-0.468205 3.016467 0.980943 28.277983 1.164807 86.337887 0.664944 4.487667 8.011003 -4.348035 -0.153460 -3.802901 4.317827 12.783510 -12.616273 0.000000 -0.000000 0.000000 2.202220 -2.977307 1.110440 2.465123 -3.077310 8.058344 0.403914 -7.452839 -15.250498 0.000000 -0.000000 0.000000 0.387441 -0.856129 3.854211 0.409062 -3.442043 6.347788 0.713665 -2.079918 -0.868644 1.375279 2.467479 5.117288 2.250707 4.838269 11.887799 -28.527304 -2.804229 6.923696 -60.252156 -7.495453 8.922835 12.345644 -26.131455 -2.723374 -1.731223 -6.006758 -6.242582 23.313288 5.815947 6.968269 59.891300 6.439284 12.942180 -13.066758 25.005252 -4.926114 5.831738 6.632069 -10.407443 
-0.468658 3.017309 0.981232 28.303444 1.132339 86.150497 0.573281 4.306073 7.742965 -4.353190 -0.147351 -3.026434 4.462815 13.057430 -13.037635 0.000000 -0.000000 0.000000 2.258967 -2.832905 0.853705 2.301203 -3.067182 8.832151 0.379022 -7.583864 -15.533905 0.000000 -0.000000 0.000000 0.319974 -0.814289 4.063269 0.412086 -3.433019 6.363788 0.708999 -2.092721 -0.836361 1.397347 2.460964 5.184270 2.279533 4.841673 11.997724 -28.460409 -2.850003 6.859525 -60.300323 -7.548193 9.017518 12.321438 -26.198235 -2.700780 -1.763030 -6.024208 -6.205368 23.307058 5.892336 6.917944 59.919635 6.427783 12.973884 -13.059397 24.937960 -4.907009 5.889950 6.655374 -10.412571 
-0.469172 3.018306 0.981487 28.452344 1.064253 85.959385 0.443924 4.085165 7.371417 -4.302553 -0.216427 -2.034917 4.588082 13.220604 -13.439593 0.000000 -0.000000 0.000000 2.320030 -2.759066 0.480663 2.041733 -3.101311 9.837002 0.343556 -7.763627 -15.884622 0.000000 -0.000000 0.000000 0.183825 -0.753795 4.275474 0.435202 -3.479690 6.390683 0.714503 -2.123097 -0.844054 1.391731 2.425030 5.313259 2.354420 4.828356 12.092766 -28.353894 -2.953386 6.811851 -60.402955 -7.530229 9.134780 12.364632 -26.242874 -2.873355 -1.752569 -5.978735 -6.129759 23.335387 5.988043 6.862235 59.921255 6.324192 12.982933 -13.041527 24.854511 -4.933836 5.961991 6.695426 -10.380310 
-0.469375 3.018917 0.981544 28.573222 1.011271 85.861979 0.351331 3.955006 7.171195 -4.279613 -0.293214 -1.508116 4.664495 13.312117 -13.647572 0.000000 -0.000000 0.000000 2.356096 -2.692182 0.162705 1.846844 -3.145839 10.603000 0.334117 -7.901699 -16.132865 0.000000 -0.000000 0.000000 0.092656 -0.734998 4.371250 0.452909 -3.486378 6.393314 0.709492 -2.141425 -0.846004 1.403593 2.395449 5.369930 2.399358 4.795946 12.211211 -28.293828 -2.966274 6.774267 -60.441982 -7.544837 9.215218 12.330080 -26.218385 -2.908925 -1.749605 -5.997699 -6.090369 23.367969 5.998920 6.808717 59.916717 6.230204 13.003647 -13.041067 24.792725 -4.945896 5.991398 6.738648 -10.362629 
-0.469546 3.019842 0.981548 28.732421 0.909838 85.723573 0.190865 3.798442 6.949398 -4.265743 -0.469508 -0.877483 4.813403 13.471313 -13.915682 0.000000 -0.000000 0.000000 2.396656 -2.556662 -0.527065 1.493257 -3.189962 12.127892 0.365563 -8.119819 -16.599667 0.000000 -0.000000 0.000000 -0.072327 -0.730726 4.515240 0.497298 -3.462258 6.448417 0.689095 -2.165410 -0.892621 1.455530 2.322417 5.309407 2.451829 4.736600 12.453792 -28.248037 -2.952978 6.688113 -60.445724 -7.516520 9.338224 12.288315 -26.243051 -3.041219 -1.709463 -6.020445 -6.038705 23.462103 6.001357 6.700315 59.861734 6.079782 13.042940 -13.055442 24.710594 -5.019851 6.038357 6.801032 -10.287327 
-0.469510 3.020796 0.981353 28.911882 0.772872 85.551039 -0.005798 3.693459 6.930497 -4.276172 -0.752107 -0.572639 5.010271 13.644205 -14.055036 0.000000 -0.000000 0.000000 2.435308 -2.259170 -1.545254 1.019505 -3.295822 14.325994 0.443238 -8.419031 -17.202436 0.000000 -0.000000 0.000000 -0.306580 -0.838163 4.688788 0.560204 -3.405513 6.564248 0.657484 -2.154888 -0.953024 1.539156 2.274318 5.170821 2.460283 4.679275 12.630559 -28.197289 -2.940193 6.580984 -60.441510 -7.410835 9.466224 12.292437 -26.371349 -3.300916 -1.667456 -6.009522 -5.969100 23.597775 6.068900 6.570607 59.749571 5.937952 13.103512 -13.069336 24.600480 -5.132928 6.103206 6.861259 -10.165459 
-0.469420 3.021761 0.980930 29.130437 0.615053 85.381509 -0.144629 3.690816 7.184487 -4.385534 -1.142370 -0.774035 5.206010 13.740519 -14.017126 0.000000 -0.000000 0.000000 2.509402 -1.831710 -2.814944 0.427172 -3.446933 16.989974 0.568695 -8.799600 -17.763976 0.000000 -0.000000 0.000000 -0.613263 -1.070384 4.842214 0.645260 -3.348670 6.724788 0.624919 -2.131409 -1.027091 1.624800 2.302075 5.059214 2.427991 4.683369 12.743412 -28.124152 -2.948891 6.481015 -60.457631 -7.299043 9.599315 12.335610 -26.359780 -3.592112 -1.551210 -5.922013 -5.842177 23.752175 6.182473 6.437455 59.640015 5.842525 13.192920 -13.107297 24.478886 -5.264510 6.156416 6.897143 -10.084040 
-0.469302 3.022828 0.980425 29.468997 0.435678 85.259382 -0.204681 3.697302 7.506515 -4.645790 -1.612029 -1.204586 5.392298 13.731768 -13.920566 0.000000 -0.000000 0.000000 2.517454 -1.345248 -4.159500 -0.127884 -3.611785 19.758734 0.763439 -9.165572 -18.168719 0.000000 -0.000000 0.000000 -0.975599 -1.391775 4.925348 0.748440 -3.332409 6.897027 0.597279 -2.149209 -1.062220 1.724895 2.334836 4.897016 2.387232 4.660452 12.937847 -28.090970 -2.944380 6.415648 -60.427102 -7.258810 9.691662 12.334457 -26.245044 -3.827567 -1.402778 -5.928501 -5.781611 23.936671 6.221574 6.305847 59.517245 5.833825 13.265995 -13.157262 24.421882 -5.398992 6.146674 6.945059 -10.052496 
-0.469158 3.024429 0.979902 30.048334 0.228425 85.138745 -0.261241 3.635214 7.835248 -4.971069 -2.247442 -1.720106 5.649891 13.667194 -13.765488 0.000000 -0.000000 0.000000 2.330854 -0.514244 -5.877076 -0.531373 -3.568319 23.300374 1.153967 -9.452387 -18.433646 0.000000 -0.000000 0.000000 -1.366187 -1.867130 5.065486 0.860985 -3.323722 7.061937 0.521804 -2.206288 -1.083173 1.835895 2.291541 4.605860 2.359911 4.572440 13.220650 -28.078485 -2.950366 6.321005 -60.342904 -7.213286 9.818017 12.348417 -26.043501 -4.137715 -1.305478 -5.861150 -5.658813 24.185689 6.132918 6.110965 59.384884 5.809696 13.367994 -13.245352 24.522305 -5.582904 6.185857 6.961044 -9.977522 
